<mxfile host="app.diagrams.net" modified="2024-07-25T02:12:46.461Z" agent="Mozilla/5.0 (Windows NT 10.0; Win64; x64) AppleWebKit/537.36 (KHTML, like Gecko) Chrome/126.0.0.0 Safari/537.36 Edg/126.0.0.0" version="24.7.3" etag="TCr1uLYqYsI-zfzGVDz9" type="github">
  <diagram name="第 1 页" id="gIm-_4_sjpbjk3sTQJFh">
    <mxGraphModel>
      <root>
        <mxCell id="0" />
        <mxCell id="1" parent="0" />
      </root>
    </mxGraphModel>
  </diagram>
</mxfile>
